<svg width="24" height="24" viewBox="0 0 24 24" fill="none" xmlns="http://www.w3.org/2000/svg">
<g clip-path="url(#clip0_82_422)">
<path d="M3 12C3 7.757 3 5.636 4.318 4.318C5.636 3 7.758 3 12 3C16.242 3 18.364 3 19.682 4.318C21 5.636 21 7.758 21 12C21 16.242 21 18.364 19.682 19.682C18.364 21 16.242 21 12 21C7.758 21 5.636 21 4.318 19.682C3 18.364 3 16.242 3 12Z" stroke="#9A99FF" stroke-width="1.25" stroke-linecap="round" stroke-linejoin="round"/>
<path d="M12 15.79L11.18 13.137M6.31604 15.789L7.13604 13.137M7.13604 13.137L7.82204 10.919C8.38104 9.113 8.66004 8.211 9.15804 8.211C9.65604 8.211 9.93504 9.113 10.493 10.919L11.179 13.137H7.13604Z" stroke="#9A99FF" stroke-width="1.25" stroke-linecap="round" stroke-linejoin="round"/>
<path d="M13.895 12.824V13.894C13.8947 14.3119 14.0326 14.7182 14.2872 15.0496C14.5418 15.3811 14.8988 15.619 15.3027 15.7265C15.7066 15.834 16.1347 15.8049 16.5203 15.6439C16.906 15.4828 17.2275 15.1988 17.435 14.836M13.895 12.824V12C13.895 11.7511 13.944 11.5047 14.0393 11.2748C14.1345 11.0449 14.2741 10.836 14.4501 10.66C14.626 10.484 14.8349 10.3445 15.0648 10.2492C15.2947 10.154 15.5412 10.105 15.79 10.105C16.0389 10.105 16.2853 10.154 16.5152 10.2492C16.7451 10.3445 16.954 10.484 17.13 10.66C17.306 10.836 17.4455 11.0449 17.5408 11.2748C17.636 11.5047 17.685 11.7511 17.685 12V12.824H13.895Z" stroke="#9A99FF" stroke-width="1.25" stroke-linecap="round" stroke-linejoin="round"/>
</g>
<defs>
<clipPath id="clip0_82_422">
<rect width="24" height="24" fill="white"/>
</clipPath>
</defs>
</svg>
