<svg width="24" height="24" viewBox="0 0 24 24" fill="none" xmlns="http://www.w3.org/2000/svg">
<g clip-path="url(#clip0_82_416)">
<path d="M3 12C3 7.757 3 5.636 4.318 4.318C5.636 3 7.758 3 12 3C16.242 3 18.364 3 19.682 4.318C21 5.636 21 7.758 21 12C21 16.242 21 18.364 19.682 19.682C18.364 21 16.242 21 12 21C7.758 21 5.636 21 4.318 19.682C3 18.364 3 16.242 3 12Z" stroke="#FF9500" stroke-width="1.25" stroke-linecap="round" stroke-linejoin="round"/>
<path d="M12.9469 15.79L12.1269 13.137M12.1269 13.137L11.4409 10.919C10.8819 9.113 10.6029 8.211 10.1049 8.211C9.60794 8.211 9.32794 9.113 8.76994 10.919L8.08294 13.137M12.1269 13.137H8.08294M7.26294 15.789L8.08294 13.137" stroke="#FF9500" stroke-width="1.25" stroke-linecap="round" stroke-linejoin="round"/>
<path d="M15.7889 15.789V11.053" stroke="#FF9500" stroke-width="1.25" stroke-linecap="round" stroke-linejoin="round"/>
<path d="M15.7889 8.684V8.211" stroke="#FF9500" stroke-width="1.25" stroke-linecap="round" stroke-linejoin="round"/>
</g>
<defs>
<clipPath id="clip0_82_416">
<rect width="24" height="24" fill="white"/>
</clipPath>
</defs>
</svg>
