<svg width="24" height="24" viewBox="0 0 24 24" fill="none" xmlns="http://www.w3.org/2000/svg">
<g clip-path="url(#clip0_82_419)">
<path d="M3 12C3 7.757 3 5.636 4.318 4.318C5.636 3 7.758 3 12 3C16.242 3 18.364 3 19.682 4.318C21 5.636 21 7.758 21 12C21 16.242 21 18.364 19.682 19.682C18.364 21 16.242 21 12 21C7.758 21 5.636 21 4.318 19.682C3 18.364 3 16.242 3 12Z" stroke="#E61C81" stroke-width="1.25" stroke-linecap="round" stroke-linejoin="round"/>
<path d="M14.842 11.053V14.843C14.842 15.887 14.352 15.789 13.422 15.789C12.794 15.789 12.1917 15.5395 11.7476 15.0955C11.3035 14.6514 11.054 14.0491 11.054 13.421C11.054 12.793 11.3035 12.1907 11.7476 11.7466C12.1917 11.3025 12.794 11.053 13.422 11.053H14.842ZM14.842 11.053V8.21002" stroke="#E61C81" stroke-width="1.25" stroke-linecap="round" stroke-linejoin="round"/>
<path d="M8.211 8.211V15.789" stroke="#E61C81" stroke-width="1.25" stroke-linecap="round" stroke-linejoin="round"/>
</g>
<defs>
<clipPath id="clip0_82_419">
<rect width="24" height="24" fill="white"/>
</clipPath>
</defs>
</svg>
