<svg width="24" height="24" viewBox="0 0 24 24" fill="none" xmlns="http://www.w3.org/2000/svg">
<g clip-path="url(#clip0_82_413)">
<path d="M3 12C3 7.757 3 5.636 4.318 4.318C5.636 3 7.758 3 12 3C16.242 3 18.364 3 19.682 4.318C21 5.636 21 7.758 21 12C21 16.242 21 18.364 19.682 19.682C18.364 21 16.242 21 12 21C7.758 21 5.636 21 4.318 19.682C3 18.364 3 16.242 3 12Z" stroke="#2C9AEE" stroke-width="1.25" stroke-linecap="round" stroke-linejoin="round"/>
<path d="M6.79004 15.79V12M6.79004 12V9.27601C6.79004 9.16601 6.79004 9.11101 6.79404 9.06501C6.83804 8.61501 7.19404 8.25901 7.64404 8.21501C7.69004 8.21101 7.74504 8.21101 7.85504 8.21101H9.15804C9.41049 8.20521 9.66156 8.24992 9.89648 8.34252C10.1314 8.43512 10.3455 8.57374 10.5261 8.75024C10.7067 8.92673 10.8502 9.13754 10.9481 9.37028C11.0461 9.60302 11.0966 9.85299 11.0966 10.1055C11.0966 10.358 11.0461 10.608 10.9481 10.8407C10.8502 11.0735 10.7067 11.2843 10.5261 11.4608C10.3455 11.6373 10.1314 11.7759 9.89648 11.8685C9.66156 11.9611 9.41049 12.0058 9.15804 12H6.79004Z" stroke="#2C9AEE" stroke-width="1.25" stroke-linecap="round" stroke-linejoin="round"/>
<path d="M17.178 11.263C17.014 10.604 16.243 10.105 15.316 10.105C14.269 10.105 13.421 10.742 13.421 11.526C13.421 12.311 14.269 12.947 15.316 12.947C16.362 12.947 17.211 13.584 17.211 14.368C17.211 15.153 16.362 15.789 15.316 15.789C14.386 15.789 13.612 15.287 13.452 14.624" stroke="#2C9AEE" stroke-width="1.25" stroke-linecap="round" stroke-linejoin="round"/>
</g>
<defs>
<clipPath id="clip0_82_413">
<rect width="24" height="24" fill="white"/>
</clipPath>
</defs>
</svg>
