<svg width="24" height="24" viewBox="0 0 24 24" fill="none" xmlns="http://www.w3.org/2000/svg">
<g clip-path="url(#clip0_13_396)">
<path d="M3 12C3 7.757 3 5.636 4.318 4.318C5.636 3 7.758 3 12 3C16.242 3 18.364 3 19.682 4.318C21 5.636 21 7.758 21 12C21 16.242 21 18.364 19.682 19.682C18.364 21 16.242 21 12 21C7.758 21 5.636 21 4.318 19.682C3 18.364 3 16.242 3 12Z" stroke="black" stroke-width="1.25" stroke-linecap="round" stroke-linejoin="round"/>
<path d="M6.78998 15.79V12M6.78998 12V9.276C6.78998 9.166 6.78998 9.111 6.79398 9.065C6.83798 8.615 7.19398 8.259 7.64398 8.215C7.68998 8.211 7.74498 8.211 7.85498 8.211H9.15798C9.41043 8.2052 9.66149 8.24992 9.89642 8.34252C10.1313 8.43512 10.3454 8.57374 10.526 8.75023C10.7066 8.92673 10.8501 9.13754 10.9481 9.37027C11.046 9.60301 11.0965 9.85298 11.0965 10.1055C11.0965 10.358 11.046 10.608 10.9481 10.8407C10.8501 11.0735 10.7066 11.2843 10.526 11.4608C10.3454 11.6373 10.1313 11.7759 9.89642 11.8685C9.66149 11.9611 9.41043 12.0058 9.15798 12H6.78998Z" stroke="black" stroke-width="1.25" stroke-linecap="round" stroke-linejoin="round"/>
<path d="M17.178 11.263C17.014 10.604 16.243 10.105 15.316 10.105C14.269 10.105 13.421 10.742 13.421 11.526C13.421 12.311 14.269 12.947 15.316 12.947C16.362 12.947 17.211 13.584 17.211 14.368C17.211 15.153 16.362 15.789 15.316 15.789C14.386 15.789 13.612 15.287 13.452 14.624" stroke="black" stroke-width="1.25" stroke-linecap="round" stroke-linejoin="round"/>
</g>
<defs>
<clipPath id="clip0_13_396">
<rect width="24" height="24" fill="white"/>
</clipPath>
</defs>
</svg>
